<?xml version="1.0" standalone="no"?>
<!DOCTYPE svg PUBLIC "-//W3C//DTD SVG 1.1//EN" "http://www.w3.org/Graphics/SVG/1.1/DTD/svg11.dtd" >
<svg xmlns="http://www.w3.org/2000/svg">
<metadata></metadata>
<defs>
<font id="fight_nightregular" horiz-adv-x="1100" >
<font-face units-per-em="2048" ascent="1638" descent="-410" />
<missing-glyph horiz-adv-x="508" />
<glyph unicode="&#xd;" horiz-adv-x="508" />
<glyph horiz-adv-x="0" />
<glyph horiz-adv-x="0" />
<glyph unicode=" "  horiz-adv-x="508" />
<glyph unicode="&#x09;" horiz-adv-x="508" />
<glyph unicode="&#xa0;" horiz-adv-x="508" />
<glyph unicode="!" horiz-adv-x="500" d="M0 0v300h400v-300h-400zM0 400v1000h400v-1000h-400z" />
<glyph unicode="&#x22;" horiz-adv-x="1000" d="M0 1100v300h400v-300l-200 -200zM500 1100v300h400v-300l-200 -200z" />
<glyph unicode="#" horiz-adv-x="1500" d="M0 300v200h200v400h-200v200h200v300h400v-300h200v300h400v-300h200v-200h-200v-400h200v-200h-200v-300h-400v300h-200v-300h-400v300h-200zM600 500h200v400h-200v-400z" />
<glyph unicode="$" d="M0 400l400 100v-100q0 -41 29.5 -70.5t70.5 -29.5t70.5 29.5t29.5 70.5v50q0 41 -29.5 70.5t-70.5 29.5q-207 0 -353.5 117t-146.5 283v50q0 166 147 283q69 56 153 85v132h100v-107q48 7 100 7t100 -7v107h100v-132q84 -29 154 -85q146 -117 146 -283l-400 -100v100 q0 41 -29.5 70.5t-70.5 29.5t-70.5 -29.5t-29.5 -70.5v-50q0 -41 29.5 -70.5t70.5 -29.5q207 0 353.5 -117t146.5 -283v-50q0 -166 -146 -283q-70 -56 -154 -85v-132h-100v107q-48 -7 -100 -7t-100 7v-107h-100v132q-84 29 -153 85q-147 117 -147 283z" />
<glyph unicode="%" d="M0 -100l600 1600h400l-600 -1600h-400zM0 1100v300h400v-300h-400zM600 0v300h400v-300h-400z" />
<glyph unicode="&#x26;" horiz-adv-x="1200" d="M0 400q0 143 109 250q-109 107 -109 250v100q0 166 146.5 283t353.5 117t353.5 -117t146.5 -283v-100h-400v100q0 41 -29.5 70.5t-70.5 29.5t-70.5 -29.5t-29.5 -70.5v-100q0 -41 29.5 -70.5t70.5 -29.5h600l-100 -300h-500q-41 0 -70.5 -29.5t-29.5 -70.5t29.5 -70.5 t70.5 -29.5t70.5 29.5t29.5 70.5h400q0 -41 29.5 -70.5t70.5 -29.5v-300q-171 0 -300 79q-129 -79 -300 -79q-207 0 -353.5 117t-146.5 283z" />
<glyph unicode="'" horiz-adv-x="500" d="M0 1100v300h400v-300l-200 -200z" />
<glyph unicode="(" horiz-adv-x="700" d="M0 300v800q0 166 146.5 283t353.5 117h100v-300h-100q-41 0 -70.5 -29.5t-29.5 -70.5v-800q0 -41 29.5 -70.5t70.5 -29.5h100v-300h-100q-207 0 -353.5 117t-146.5 283z" />
<glyph unicode=")" horiz-adv-x="700" d="M0 -100v300h100q41 0 70.5 29.5t29.5 70.5v800q0 41 -29.5 70.5t-70.5 29.5h-100v300h100q207 0 353.5 -117t146.5 -283v-800q0 -166 -146.5 -283t-353.5 -117h-100z" />
<glyph unicode="*" horiz-adv-x="900" d="M0 950v300h200v150h400v-150h200v-300h-200v-150h-400v150h-200z" />
<glyph unicode="+" horiz-adv-x="900" d="M0 550v300h200v150h400v-150h200v-300h-200v-150h-400v150h-200z" />
<glyph unicode="," horiz-adv-x="500" d="M0 -200v500h400v-300z" />
<glyph unicode="-" horiz-adv-x="800" d="M0 550v300h700v-300h-700z" />
<glyph unicode="." horiz-adv-x="500" d="M0 0v300h400v-300h-400z" />
<glyph unicode="/" horiz-adv-x="900" d="M-100 -100l600 1600h400l-600 -1600h-400z" />
<glyph unicode="0" d="M0 400v600q0 166 146.5 283t353.5 117t353.5 -117t146.5 -283v-600q0 -166 -146.5 -283t-353.5 -117t-353.5 117t-146.5 283zM400 400q0 -41 29.5 -70.5t70.5 -29.5t70.5 29.5t29.5 70.5v600q0 41 -29.5 70.5t-70.5 29.5t-70.5 -29.5t-29.5 -70.5v-600z" />
<glyph unicode="1" horiz-adv-x="500" d="M0 0v1300l400 100v-1400h-400z" />
<glyph unicode="2" d="M0 0v450q0 166 146.5 283t353.5 117q41 0 70.5 29.5t29.5 70.5v50q0 41 -29.5 70.5t-70.5 29.5t-70.5 -29.5t-29.5 -70.5v-100l-400 100q0 166 146.5 283t353.5 117t353.5 -117t146.5 -283v-50q0 -166 -146.5 -283t-353.5 -117q-41 0 -70.5 -29.5t-29.5 -70.5v-150h200 v200l400 -100v-400h-1000z" />
<glyph unicode="3" d="M0 400h400q0 -41 29.5 -70.5t70.5 -29.5t70.5 29.5t29.5 70.5t-29.5 70.5t-70.5 29.5h-200l-100 300h300q41 0 70.5 29.5t29.5 70.5v100q0 41 -29.5 70.5t-70.5 29.5t-70.5 -29.5t-29.5 -70.5v-100h-400v100q0 166 146.5 283t353.5 117t353.5 -117t146.5 -283v-100 q0 -143 -109 -250q109 -107 109 -250q0 -166 -146.5 -283t-353.5 -117t-353.5 117t-146.5 283z" />
<glyph unicode="4" d="M0 200v300l400 900h500v-900h100v-300h-100v-200h-400v200h-500zM345 500h155v400z" />
<glyph unicode="5" d="M0 400l400 100v-100q0 -41 29.5 -70.5t70.5 -29.5t70.5 29.5t29.5 70.5v50q0 41 -29.5 70.5t-70.5 29.5h-500v850h1000v-400l-400 -100v200h-200v-251l100 1q207 0 353.5 -117t146.5 -283v-50q0 -166 -146.5 -283t-353.5 -117t-353.5 117t-146.5 283z" />
<glyph unicode="6" d="M0 400v600q0 166 146.5 283t353.5 117t353.5 -117t146.5 -283v-100h-400v100q0 41 -29.5 70.5t-70.5 29.5t-70.5 -29.5t-29.5 -70.5v-207q48 7 100 7q207 0 353.5 -117t146.5 -283t-146.5 -283t-353.5 -117t-353.5 117t-146.5 283zM400 400q0 -41 29.5 -70.5t70.5 -29.5 t70.5 29.5t29.5 70.5t-29.5 70.5t-70.5 29.5t-70.5 -29.5t-29.5 -70.5z" />
<glyph unicode="7" d="M0 1000v400h1000v-300q-400 -800 -400 -1100h-400q0 300 400 1100h-200v-200z" />
<glyph unicode="8" d="M0 400q0 143 109 250q-109 107 -109 250v100q0 166 146.5 283t353.5 117t353.5 -117t146.5 -283v-100q0 -143 -109 -250q109 -107 109 -250q0 -166 -146.5 -283t-353.5 -117t-353.5 117t-146.5 283zM400 400q0 -41 29.5 -70.5t70.5 -29.5t70.5 29.5t29.5 70.5t-29.5 70.5 t-70.5 29.5t-70.5 -29.5t-29.5 -70.5zM400 900q0 -41 29.5 -70.5t70.5 -29.5t70.5 29.5t29.5 70.5v100q0 41 -29.5 70.5t-70.5 29.5t-70.5 -29.5t-29.5 -70.5v-100z" />
<glyph unicode="9" d="M0 400h400q0 -41 29.5 -70.5t70.5 -29.5t70.5 29.5t29.5 70.5v107q-48 -7 -100 -7q-207 0 -353.5 117t-146.5 283v100q0 166 146.5 283t353.5 117t353.5 -117t146.5 -283v-600q0 -166 -146.5 -283t-353.5 -117t-353.5 117t-146.5 283zM400 900q0 -41 29.5 -70.5 t70.5 -29.5t70.5 29.5t29.5 70.5v100q0 41 -29.5 70.5t-70.5 29.5t-70.5 -29.5t-29.5 -70.5v-100z" />
<glyph unicode=":" horiz-adv-x="500" d="M0 300v300h400v-300h-400zM0 800v300h400v-300h-400z" />
<glyph unicode=";" horiz-adv-x="500" d="M0 100v500h400v-300zM0 800v300h400v-300h-400z" />
<glyph unicode="&#x3c;" d="M0 500v400l1000 300v-400l-500 -100l500 -100v-400z" />
<glyph unicode="=" horiz-adv-x="800" d="M0 300v300h700v-300h-700zM0 800v300h700v-300h-700z" />
<glyph unicode="&#x3e;" d="M0 200v400l500 100l-500 100v400l1000 -300v-400z" />
<glyph unicode="?" d="M0 0v300h400v-300h-400zM0 400v50q0 166 146.5 283t353.5 117q41 0 70.5 29.5t29.5 70.5v50q0 41 -29.5 70.5t-70.5 29.5t-70.5 -29.5t-29.5 -70.5v-100l-400 100q0 166 146.5 283t353.5 117t353.5 -117t146.5 -283v-50q0 -166 -146.5 -283t-353.5 -117 q-41 0 -70.5 -29.5t-29.5 -70.5v-50h-400z" />
<glyph unicode="@" d="M0 400v600q0 166 146.5 283t353.5 117t353.5 -117t146.5 -283v-500h-500v300h100v200q0 41 -29.5 70.5t-70.5 29.5t-70.5 -29.5t-29.5 -70.5v-600q0 -41 29.5 -70.5t70.5 -29.5t70.5 29.5t29.5 70.5h400q0 -166 -146.5 -283t-353.5 -117t-353.5 117t-146.5 283z" />
<glyph unicode="A" d="M0 0l300 1400h400l300 -1400h-400l-12 100h-175l-13 -100h-400zM450 400h100l-50 400z" />
<glyph unicode="B" d="M0 0v1400h500q207 0 353.5 -117t146.5 -283v-100q0 -143 -109 -250q109 -107 109 -250q0 -166 -146.5 -283t-353.5 -117h-500zM400 300h100q41 0 70.5 29.5t29.5 70.5t-29.5 70.5t-70.5 29.5h-100v-200zM400 800h100q41 0 70.5 29.5t29.5 70.5v100q0 41 -29.5 70.5 t-70.5 29.5h-100v-300z" />
<glyph unicode="C" d="M0 400v600q0 166 146.5 283t353.5 117t353.5 -117t146.5 -283v-100l-400 -100v200q0 41 -29.5 70.5t-70.5 29.5t-70.5 -29.5t-29.5 -70.5v-600q0 -41 29.5 -70.5t70.5 -29.5t70.5 29.5t29.5 70.5v200l400 -100v-100q0 -166 -146.5 -283t-353.5 -117t-353.5 117 t-146.5 283z" />
<glyph unicode="D" d="M0 0v1400h500q207 0 353.5 -117t146.5 -283v-600q0 -166 -146.5 -283t-353.5 -117h-500zM400 300h100q41 0 70.5 29.5t29.5 70.5v600q0 41 -29.5 70.5t-70.5 29.5h-100v-800z" />
<glyph unicode="E" horiz-adv-x="900" d="M0 0v1400h800v-300h-400v-300h400l-100 -300h-300v-200h400v-300h-800z" />
<glyph unicode="F" horiz-adv-x="900" d="M0 0v1400h800v-300h-400v-300h400l-100 -300h-300v-500h-400z" />
<glyph unicode="G" d="M0 400v600q0 166 146.5 283t353.5 117t353.5 -117t146.5 -283v-100h-400v100q0 41 -29.5 70.5t-70.5 29.5t-70.5 -29.5t-29.5 -70.5v-600q0 -41 29.5 -70.5t70.5 -29.5t70.5 29.5t29.5 70.5v100h-100v300h500v-400q0 -166 -146.5 -283t-353.5 -117t-353.5 117t-146.5 283 z" />
<glyph unicode="H" d="M0 0v1400h400v-700h200v700h400v-1400h-400v400h-200v-400h-400z" />
<glyph unicode="I" horiz-adv-x="500" d="M0 0v1400h400v-1400h-400z" />
<glyph unicode="J" d="M0 400v100l400 100v-200q0 -41 29.5 -70.5t70.5 -29.5t70.5 29.5t29.5 70.5v700h-200l-100 300h700v-1000q0 -166 -146.5 -283t-353.5 -117t-353.5 117t-146.5 283z" />
<glyph unicode="K" d="M0 0v1400h400v-366l200 366h400l-358 -656l406 -744h-400l-248 455v-455h-400z" />
<glyph unicode="L" horiz-adv-x="800" d="M0 0v1400h400v-1100h300v-300h-700z" />
<glyph unicode="M" horiz-adv-x="1500" d="M0 0v1400h600l100 -800l100 800h600v-1400h-400v801l-100 -801h-400l-100 800v-800h-400z" />
<glyph unicode="N" d="M0 0v1400h400l200 -400v400h400v-1400h-400v500l-200 400v-900h-400z" />
<glyph unicode="O" d="M0 400v600q0 166 146.5 283t353.5 117t353.5 -117t146.5 -283v-600q0 -166 -146.5 -283t-353.5 -117t-353.5 117t-146.5 283zM400 400q0 -41 29.5 -70.5t70.5 -29.5t70.5 29.5t29.5 70.5v600q0 41 -29.5 70.5t-70.5 29.5t-70.5 -29.5t-29.5 -70.5v-600z" />
<glyph unicode="P" d="M0 0v1400h500q207 0 353.5 -117t146.5 -283v-100q0 -166 -146.5 -283t-353.5 -117h-100v-500h-400zM400 800h100q41 0 70.5 29.5t29.5 70.5v100q0 41 -29.5 70.5t-70.5 29.5h-100v-300z" />
<glyph unicode="Q" d="M0 400v600q0 166 146.5 283t353.5 117t353.5 -117t146.5 -283v-600q0 -101 -54 -184l54 -216h-500q-207 0 -353.5 117t-146.5 283zM400 400q0 -41 29.5 -70.5t70.5 -29.5t70.5 29.5t29.5 70.5v600q0 41 -29.5 70.5t-70.5 29.5t-70.5 -29.5t-29.5 -70.5v-600z" />
<glyph unicode="R" d="M0 0v1400h500q207 0 353.5 -117t146.5 -283v-100q0 -143 -109 -250q109 -107 109 -250v-500l-400 100v400q0 41 -29.5 70.5t-70.5 29.5h-100v-500h-400zM400 800h100q41 0 70.5 29.5t29.5 70.5v100q0 41 -29.5 70.5t-70.5 29.5h-100v-300z" />
<glyph unicode="S" d="M0 400l400 100v-100q0 -41 29.5 -70.5t70.5 -29.5t70.5 29.5t29.5 70.5v50q0 41 -29.5 70.5t-70.5 29.5q-207 0 -353.5 117t-146.5 283v50q0 166 146.5 283t353.5 117t353.5 -117t146.5 -283l-400 -100v100q0 41 -29.5 70.5t-70.5 29.5t-70.5 -29.5t-29.5 -70.5v-50 q0 -41 29.5 -70.5t70.5 -29.5q207 0 353.5 -117t146.5 -283v-50q0 -166 -146.5 -283t-353.5 -117t-353.5 117t-146.5 283z" />
<glyph unicode="T" horiz-adv-x="900" d="M0 1100v300h800v-300h-200v-1100h-400v1100h-200z" />
<glyph unicode="U" d="M0 400v1000h400v-1000q0 -41 29.5 -70.5t70.5 -29.5t70.5 29.5t29.5 70.5v1000h400v-1000q0 -166 -146.5 -283t-353.5 -117t-353.5 117t-146.5 283z" />
<glyph unicode="V" d="M0 1400h400l100 -800l100 800h400l-300 -1400h-400z" />
<glyph unicode="W" horiz-adv-x="1700" d="M0 1400h400l100 -800l100 800h400l100 -800l100 800h400l-300 -1400h-400l-100 467l-100 -467h-400z" />
<glyph unicode="X" d="M0 0l300 700l-300 700h400l100 -233l100 233h400l-300 -700l300 -700h-400l-100 233l-100 -233h-400z" />
<glyph unicode="Y" d="M0 1400h400l100 -600l100 600h400l-300 -1000v-400h-400v400z" />
<glyph unicode="Z" horiz-adv-x="900" d="M0 0v300l400 800h-400v300h800v-300l-400 -800h400v-300h-800z" />
<glyph unicode="[" horiz-adv-x="700" d="M0 -100v1600h600v-300h-200v-1000h200v-300h-600z" />
<glyph unicode="\" horiz-adv-x="900" d="M-100 1500h400l600 -1600h-400z" />
<glyph unicode="]" horiz-adv-x="700" d="M0 -100v300h200v1000h-200v300h600v-1600h-600z" />
<glyph unicode="_" horiz-adv-x="800" d="M0 0v300h700v-300h-700z" />
<glyph unicode="`" horiz-adv-x="500" d="M0 1100v300h300l100 -400z" />
<glyph unicode="a" d="M0 400v400q0 166 146.5 283t353.5 117q147 0 264 -59l236 59v-1200l-236 59q-117 -59 -264 -59q-207 0 -353.5 117t-146.5 283zM400 400q0 -41 29.5 -70.5t70.5 -29.5t70.5 29.5t29.5 70.5v400q0 41 -29.5 70.5t-70.5 29.5t-70.5 -29.5t-29.5 -70.5v-400z" />
<glyph unicode="b" d="M0 0v1500l400 -100v-207q48 7 100 7q207 0 353.5 -117t146.5 -283v-400q0 -166 -146.5 -283t-353.5 -117q-147 0 -264 59zM400 400q0 -41 29.5 -70.5t70.5 -29.5t70.5 29.5t29.5 70.5v400q0 41 -29.5 70.5t-70.5 29.5t-70.5 -29.5t-29.5 -70.5v-400z" />
<glyph unicode="c" d="M0 400v400q0 166 146.5 283t353.5 117t353.5 -117t146.5 -283l-400 -100v100q0 41 -29.5 70.5t-70.5 29.5t-70.5 -29.5t-29.5 -70.5v-400q0 -41 29.5 -70.5t70.5 -29.5t70.5 29.5t29.5 70.5v100l400 -100q0 -166 -146.5 -283t-353.5 -117t-353.5 117t-146.5 283z" />
<glyph unicode="d" d="M0 400v400q0 166 146.5 283t353.5 117q52 0 100 -7v207l400 100v-1500l-236 59q-117 -59 -264 -59q-207 0 -353.5 117t-146.5 283zM400 400q0 -41 29.5 -70.5t70.5 -29.5t70.5 29.5t29.5 70.5v400q0 41 -29.5 70.5t-70.5 29.5t-70.5 -29.5t-29.5 -70.5v-400z" />
<glyph unicode="e" d="M0 400v400q0 166 146.5 283t353.5 117t353.5 -117t146.5 -283v-300h-600v-100q0 -41 29.5 -70.5t70.5 -29.5t70.5 29.5t29.5 70.5h400q0 -166 -146.5 -283t-353.5 -117t-353.5 117t-146.5 283zM400 700h200v100q0 41 -29.5 70.5t-70.5 29.5t-70.5 -29.5t-29.5 -70.5v-100 z" />
<glyph unicode="f" horiz-adv-x="900" d="M0 500v300h200v200q0 166 146.5 283t353.5 117h100v-299l-100 -1q-41 0 -70.5 -29.5t-29.5 -70.5v-200h200v-300h-200v-500q0 -166 -146.5 -283t-353.5 -117v300q41 0 70.5 29.5t29.5 70.5v500h-200z" />
<glyph unicode="g" d="M0 400v400q0 166 146.5 283t353.5 117q147 0 264 -59l236 59v-1200q0 -166 -146.5 -283t-353.5 -117h-300l100 300h200q41 0 70.5 29.5t29.5 70.5v7q-48 -7 -100 -7q-207 0 -353.5 117t-146.5 283zM400 400q0 -41 29.5 -70.5t70.5 -29.5t70.5 29.5t29.5 70.5v400 q0 41 -29.5 70.5t-70.5 29.5t-70.5 -29.5t-29.5 -70.5v-400z" />
<glyph unicode="h" d="M0 0v1500l400 -100v-207q48 7 100 7q207 0 353.5 -117t146.5 -283v-900l-400 100v800q0 41 -29.5 70.5t-70.5 29.5t-70.5 -29.5t-29.5 -70.5v-800h-400z" />
<glyph unicode="i" horiz-adv-x="500" d="M0 0v1000h400v-1000h-400zM0 1100v300h400v-300h-400z" />
<glyph unicode="j" horiz-adv-x="500" d="M-400 -400l100 300h200q41 0 70.5 29.5t29.5 70.5v1000h400v-1000q0 -166 -146.5 -283t-353.5 -117h-300zM0 1100v300h400v-300h-400z" />
<glyph unicode="k" d="M0 0v1400l400 -100v-400l200 300h400l-358 -547l406 -653h-400l-248 400v-400h-400z" />
<glyph unicode="l" horiz-adv-x="500" d="M0 0v1400h400v-1400h-400z" />
<glyph unicode="m" horiz-adv-x="1700" d="M0 0v1200l236 -59q117 59 264 59q171 0 300 -79q129 79 300 79q207 0 353.5 -117t146.5 -283v-900l-400 100v800q0 41 -29.5 70.5t-70.5 29.5t-70.5 -29.5t-29.5 -70.5v-800h-400v800q0 41 -29.5 70.5t-70.5 29.5t-70.5 -29.5t-29.5 -70.5v-800h-400z" />
<glyph unicode="n" d="M0 0v1200l236 -59q117 59 264 59q207 0 353.5 -117t146.5 -283v-900l-400 100v800q0 41 -29.5 70.5t-70.5 29.5t-70.5 -29.5t-29.5 -70.5v-800h-400z" />
<glyph unicode="o" d="M0 400v400q0 166 146.5 283t353.5 117t353.5 -117t146.5 -283v-400q0 -166 -146.5 -283t-353.5 -117t-353.5 117t-146.5 283zM400 400q0 -41 29.5 -70.5t70.5 -29.5t70.5 29.5t29.5 70.5v400q0 41 -29.5 70.5t-70.5 29.5t-70.5 -29.5t-29.5 -70.5v-400z" />
<glyph unicode="p" d="M0 -300v1500l236 -59q117 59 264 59q207 0 353.5 -117t146.5 -283v-400q0 -166 -146.5 -283t-353.5 -117q-52 0 -100 7v-207zM400 400q0 -41 29.5 -70.5t70.5 -29.5t70.5 29.5t29.5 70.5v400q0 41 -29.5 70.5t-70.5 29.5t-70.5 -29.5t-29.5 -70.5v-400z" />
<glyph unicode="q" d="M0 400v400q0 166 146.5 283t353.5 117q147 0 264 -59l236 59v-1500l-400 100v207q-48 -7 -100 -7q-207 0 -353.5 117t-146.5 283zM400 400q0 -41 29.5 -70.5t70.5 -29.5t70.5 29.5t29.5 70.5v400q0 41 -29.5 70.5t-70.5 29.5t-70.5 -29.5t-29.5 -70.5v-400z" />
<glyph unicode="r" horiz-adv-x="800" d="M0 0v1200l236 -59q117 59 264 59l201 -1l-1 -299h-200q-41 0 -70.5 -29.5t-29.5 -70.5v-800h-400z" />
<glyph unicode="s" d="M0 400h400q0 -41 29.5 -70.5t70.5 -29.5t70.5 29.5t29.5 70.5q0 33 -29.5 56.5t-70.5 23.5q-207 0 -353.5 93.5t-146.5 226.5q0 166 146.5 283t353.5 117t353.5 -117t146.5 -283h-400q0 41 -29.5 70.5t-70.5 29.5t-70.5 -29.5t-29.5 -70.5q0 -33 29.5 -56.5t70.5 -23.5 q207 0 353.5 -93.5t146.5 -226.5q0 -166 -146.5 -283t-353.5 -117t-353.5 117t-146.5 283z" />
<glyph unicode="t" horiz-adv-x="900" d="M0 900v300h200v200h400v-200h200v-300h-200v-900h-400v900h-200z" />
<glyph unicode="u" d="M0 400v800h400v-800q0 -41 29.5 -70.5t70.5 -29.5t70.5 29.5t29.5 70.5v800h400v-1200l-236 59q-117 -59 -264 -59q-207 0 -353.5 117t-146.5 283z" />
<glyph unicode="v" d="M0 1200h400l100 -700l100 700h400l-300 -1200h-400z" />
<glyph unicode="w" horiz-adv-x="1700" d="M0 1200h400l100 -700l100 700h400l100 -700l100 700h400l-300 -1200h-400l-100 600l-100 -600h-400z" />
<glyph unicode="x" d="M0 0l300 600l-300 600h400l100 -300l100 300h400l-300 -600l300 -600h-400l-100 300l-100 -300h-400z" />
<glyph unicode="y" d="M0 400v800h400v-800q0 -41 29.5 -70.5t70.5 -29.5t70.5 29.5t29.5 70.5v800h400v-1200q0 -166 -146.5 -283t-353.5 -117h-300l100 300h200q41 0 70.5 29.5t29.5 70.5v7q-48 -7 -100 -7q-207 0 -353.5 117t-146.5 283z" />
<glyph unicode="z" horiz-adv-x="900" d="M0 0v300l400 600h-400v300h800v-300l-400 -600h400v-300h-800z" />
<glyph unicode="{" horiz-adv-x="900" d="M0 500v300h100q41 0 70.5 29.5t29.5 70.5v200q0 166 146.5 283t353.5 117h100v-300h-100q-41 0 -70.5 -29.5t-29.5 -70.5v-200q0 -143 -109 -250q109 -107 109 -250v-100q0 -41 29.5 -70.5t70.5 -29.5h100v-300h-100q-207 0 -353.5 117t-146.5 283v100q0 41 -29.5 70.5 t-70.5 29.5h-100z" />
<glyph unicode="|" horiz-adv-x="500" d="M0 -100v1600h400v-1600h-400z" />
<glyph unicode="}" horiz-adv-x="900" d="M0 -100v300h100q41 0 70.5 29.5t29.5 70.5v100q0 143 109 250q-109 107 -109 250v200q0 41 -29.5 70.5t-70.5 29.5h-100v300h100q207 0 353.5 -117t146.5 -283v-200q0 -41 29.5 -70.5t70.5 -29.5h100v-300h-100q-41 0 -70.5 -29.5t-29.5 -70.5v-100q0 -166 -146.5 -283 t-353.5 -117h-100z" />
<glyph unicode="&#xad;" horiz-adv-x="800" d="M0 550v300h700v-300h-700z" />
<glyph unicode="&#x2000;" horiz-adv-x="750" />
<glyph unicode="&#x2001;" horiz-adv-x="1500" />
<glyph unicode="&#x2002;" horiz-adv-x="750" />
<glyph unicode="&#x2003;" horiz-adv-x="1500" />
<glyph unicode="&#x2004;" horiz-adv-x="500" />
<glyph unicode="&#x2005;" horiz-adv-x="375" />
<glyph unicode="&#x2006;" horiz-adv-x="250" />
<glyph unicode="&#x2007;" horiz-adv-x="250" />
<glyph unicode="&#x2008;" horiz-adv-x="187" />
<glyph unicode="&#x2009;" horiz-adv-x="300" />
<glyph unicode="&#x200a;" horiz-adv-x="83" />
<glyph unicode="&#x2010;" horiz-adv-x="800" d="M0 550v300h700v-300h-700z" />
<glyph unicode="&#x2011;" horiz-adv-x="800" d="M0 550v300h700v-300h-700z" />
<glyph unicode="&#x2012;" horiz-adv-x="800" d="M0 550v300h700v-300h-700z" />
<glyph unicode="&#x2013;" horiz-adv-x="1124" d="M0 550v300h1024v-300h-1024z" />
<glyph unicode="&#x2014;" horiz-adv-x="2148" d="M0 550v300h2048v-300h-2048z" />
<glyph unicode="&#x202f;" horiz-adv-x="300" />
<glyph unicode="&#x205f;" horiz-adv-x="375" />
<glyph unicode="&#x25fc;" horiz-adv-x="1200" d="M0 0v1200h1200v-1200h-1200z" />
</font>
</defs>
</svg>
